<mxfile host="app.diagrams.net" agent="Mozilla/5.0 (Windows NT 10.0; Win64; x64) AppleWebKit/537.36 (KHTML, like Gecko) Chrome/128.0.0.0 YaBrowser/24.10.0.0 Safari/537.36" version="24.8.6">
  <diagram name="Страница — 1" id="FZuVYSKQKKseB5JXQPXO">
    <mxGraphModel dx="1386" dy="783" grid="1" gridSize="10" guides="1" tooltips="1" connect="1" arrows="1" fold="1" page="1" pageScale="1" pageWidth="827" pageHeight="1169" math="0" shadow="0">
      <root>
        <mxCell id="0" />
        <mxCell id="1" parent="0" />
        <mxCell id="zzf1q3I249V0uwJ0rVMr-1" value="" style="edgeStyle=orthogonalEdgeStyle;rounded=0;orthogonalLoop=1;jettySize=auto;html=1;" edge="1" parent="1" source="zzf1q3I249V0uwJ0rVMr-2" target="zzf1q3I249V0uwJ0rVMr-5">
          <mxGeometry relative="1" as="geometry" />
        </mxCell>
        <mxCell id="zzf1q3I249V0uwJ0rVMr-2" value="Начало" style="strokeWidth=2;html=1;shape=mxgraph.flowchart.terminator;whiteSpace=wrap;" vertex="1" parent="1">
          <mxGeometry x="380" y="60" width="130" height="40" as="geometry" />
        </mxCell>
        <mxCell id="zzf1q3I249V0uwJ0rVMr-3" value="Конец" style="strokeWidth=2;html=1;shape=mxgraph.flowchart.terminator;whiteSpace=wrap;" vertex="1" parent="1">
          <mxGeometry x="380" y="560" width="130" height="40" as="geometry" />
        </mxCell>
        <mxCell id="zzf1q3I249V0uwJ0rVMr-4" value="" style="edgeStyle=orthogonalEdgeStyle;rounded=0;orthogonalLoop=1;jettySize=auto;html=1;" edge="1" parent="1" source="zzf1q3I249V0uwJ0rVMr-5" target="zzf1q3I249V0uwJ0rVMr-7">
          <mxGeometry relative="1" as="geometry" />
        </mxCell>
        <mxCell id="zzf1q3I249V0uwJ0rVMr-5" value="Ввод: Должности" style="shape=parallelogram;perimeter=parallelogramPerimeter;whiteSpace=wrap;html=1;fixedSize=1;" vertex="1" parent="1">
          <mxGeometry x="360" y="140" width="170" height="60" as="geometry" />
        </mxCell>
        <mxCell id="zzf1q3I249V0uwJ0rVMr-14" value="" style="edgeStyle=orthogonalEdgeStyle;rounded=0;orthogonalLoop=1;jettySize=auto;html=1;" edge="1" parent="1" source="zzf1q3I249V0uwJ0rVMr-7" target="zzf1q3I249V0uwJ0rVMr-9">
          <mxGeometry relative="1" as="geometry" />
        </mxCell>
        <mxCell id="zzf1q3I249V0uwJ0rVMr-7" value="ПО обращается к API нейросети для генерации функциональных знаний и требований к умениям" style="rounded=0;whiteSpace=wrap;html=1;" vertex="1" parent="1">
          <mxGeometry x="317.5" y="240" width="255" height="60" as="geometry" />
        </mxCell>
        <mxCell id="zzf1q3I249V0uwJ0rVMr-8" value="" style="edgeStyle=orthogonalEdgeStyle;rounded=0;orthogonalLoop=1;jettySize=auto;html=1;" edge="1" parent="1" source="zzf1q3I249V0uwJ0rVMr-9" target="zzf1q3I249V0uwJ0rVMr-11">
          <mxGeometry relative="1" as="geometry" />
        </mxCell>
        <mxCell id="zzf1q3I249V0uwJ0rVMr-9" value="Создание файла csv таблицы &quot;Функциональные знания и умения&quot;" style="rounded=0;whiteSpace=wrap;html=1;" vertex="1" parent="1">
          <mxGeometry x="320" y="340" width="250" height="50" as="geometry" />
        </mxCell>
        <mxCell id="zzf1q3I249V0uwJ0rVMr-10" value="" style="edgeStyle=orthogonalEdgeStyle;rounded=0;orthogonalLoop=1;jettySize=auto;html=1;" edge="1" parent="1" source="zzf1q3I249V0uwJ0rVMr-11" target="zzf1q3I249V0uwJ0rVMr-3">
          <mxGeometry relative="1" as="geometry" />
        </mxCell>
        <mxCell id="zzf1q3I249V0uwJ0rVMr-11" value="Вывод: файл CSV" style="shape=parallelogram;perimeter=parallelogramPerimeter;whiteSpace=wrap;html=1;fixedSize=1;" vertex="1" parent="1">
          <mxGeometry x="360" y="440" width="170" height="60" as="geometry" />
        </mxCell>
      </root>
    </mxGraphModel>
  </diagram>
</mxfile>
